<svg width="89" height="50" viewBox="0 0 89 50" fill="none" xmlns="http://www.w3.org/2000/svg">
<mask id="mask0_4_24" style="mask-type:luminance" maskUnits="userSpaceOnUse" x="0" y="0" width="89" height="50">
<path d="M88.7939 0H0V50H88.7939V0Z" fill="white"/>
</mask>
<g mask="url(#mask0_4_24)">
<path d="M30.7566 36.3878L23.8737 43.2704C21.5956 45.5212 18.5193 46.7794 15.3167 46.7698C12.1142 46.7602 9.04547 45.4838 6.78087 43.2192C4.51627 40.9547 3.23974 37.8859 3.2301 34.6833C3.22042 31.4807 4.47841 28.4043 6.72928 26.1262L17.0097 15.8458C17.0044 15.6647 17.0007 15.4832 17.0007 15.3013C16.9997 13.7703 17.1963 12.2455 17.5855 10.7648L4.47793 23.8724C1.62387 26.7469 0.0253836 30.6354 0.0326172 34.6861C0.0398508 38.7368 1.65222 42.6195 4.51652 45.4838C7.38083 48.3481 11.2636 49.9603 15.3143 49.9674C19.365 49.9747 23.2535 48.3762 26.1279 45.5221L33.0105 38.6395L30.7566 36.3878Z" fill="url(#paint0_linear_4_24)"/>
<path d="M54.0954 50C52.0851 50.0034 50.0939 49.6096 48.2364 48.8411C46.3788 48.073 44.6911 46.945 43.2707 45.5226L23.8737 26.1256C21.0094 23.2533 19.4022 19.3616 19.4051 15.3051C19.408 11.2487 21.0207 7.35925 23.8891 4.49097C26.7575 1.6227 30.6469 0.0101358 34.7035 0.00741921C38.7598 0.00470263 42.6516 1.61206 45.5237 4.47648L64.9206 23.8734C67.0626 26.0134 68.5216 28.7407 69.1128 31.7105C69.7043 34.6799 69.4011 37.7582 68.2423 40.5555C67.0831 43.3528 65.1204 45.7431 62.6021 47.4246C60.0838 49.1058 57.1233 50.002 54.0954 50ZM45.5237 43.2704C47.8029 45.5167 50.8776 46.7706 54.0777 46.7591C57.2775 46.7476 60.3431 45.4711 62.606 43.2083C64.8686 40.9457 66.1451 37.88 66.1566 34.6802C66.1681 31.4801 64.9142 28.4052 62.6679 26.1262L43.271 6.72924C42.1481 5.59009 40.8112 4.68438 39.3367 4.06427C37.8625 3.44417 36.2801 3.12193 34.6807 3.11614C33.0811 3.11032 31.4964 3.42107 30.0177 4.03046C28.539 4.63985 27.1953 5.53586 26.0644 6.66683C24.9334 7.79779 24.0374 9.14137 23.428 10.6202C22.8186 12.099 22.5078 13.6837 22.5137 15.2831C22.5195 16.8825 22.8417 18.465 23.4618 19.9393C24.0819 21.4136 24.9876 22.7507 26.1268 23.8734L45.5237 43.2704Z" fill="url(#paint1_linear_4_24)"/>
<path d="M62.6676 4.4765L55.785 11.3591L58.0378 13.6118L64.9204 6.72926C67.1996 4.483 70.2742 3.22895 73.4743 3.24053C76.6742 3.25215 79.7398 4.52848 82.0027 6.79125C84.2653 9.05399 85.5417 12.1196 85.5533 15.3196C85.5648 18.5196 84.3109 21.5944 82.0646 23.8734L71.7763 34.1618C71.8283 35.877 71.632 37.5908 71.1937 39.2498L84.3173 26.1262C87.1883 23.2553 88.8012 19.3615 88.8012 15.3013C88.8012 11.2412 87.1883 7.34745 84.3173 4.4765C81.4463 1.60558 77.5526 -0.0072937 73.4923 -0.0072937C69.4324 -0.0072937 65.5386 1.60558 62.6676 4.4765Z" fill="url(#paint2_linear_4_24)"/>
</g>
<defs>
<linearGradient id="paint0_linear_4_24" x1="-0.890789" y1="35.1488" x2="92.9751" y2="17.7988" gradientUnits="userSpaceOnUse">
<stop stop-color="#E7267A"/>
<stop offset="0.502" stop-color="#64328A"/>
<stop offset="1" stop-color="#2B4B9B"/>
</linearGradient>
<linearGradient id="paint1_linear_4_24" x1="-0.495893" y1="36.7521" x2="92.2063" y2="12.4966" gradientUnits="userSpaceOnUse">
<stop stop-color="#E7267A"/>
<stop offset="0.502" stop-color="#64328A"/>
<stop offset="1" stop-color="#2B4B9B"/>
</linearGradient>
<linearGradient id="paint2_linear_4_24" x1="-0.14422" y1="38.3075" x2="93.8645" y2="20.9413" gradientUnits="userSpaceOnUse">
<stop stop-color="#E7267A"/>
<stop offset="0.502" stop-color="#64328A"/>
<stop offset="1" stop-color="#2B4B9B"/>
</linearGradient>
</defs>
</svg>
